<svg width="28" height="28" viewBox="0 0 28 28" fill="none" xmlns="http://www.w3.org/2000/svg">
<path d="M27.4427 17.3998C27.3204 17.2778 27.166 17.193 26.9975 17.1551C26.8289 17.1173 26.6531 17.128 26.4903 17.186C24.3034 17.9657 21.9402 18.1088 19.6751 17.5988C17.4101 17.0888 15.3363 15.9466 13.6946 14.3048C12.0529 12.6631 10.9108 10.5892 10.4009 8.32419C9.89104 6.05915 10.0343 3.69593 10.8142 1.50909C10.8721 1.34633 10.8828 1.17048 10.8448 1.00193C10.8069 0.833371 10.722 0.679015 10.5999 0.556753C10.4779 0.434492 10.3236 0.349332 10.1551 0.311147C9.98663 0.272962 9.81076 0.283316 9.64791 0.341007C7.67629 1.03723 5.88707 2.16911 4.41338 3.65242C1.77155 6.29621 0.287868 9.88097 0.288574 13.6184C0.289281 17.3559 1.77432 20.9401 4.41715 23.5829C7.05998 26.2257 10.6442 27.7107 14.3817 27.7114C18.1193 27.7121 21.7041 26.2285 24.3479 23.5867C25.8313 22.1127 26.9632 20.3232 27.6594 18.3513C27.7168 18.1884 27.727 18.0126 27.6887 17.8442C27.6503 17.6758 27.5651 17.5218 27.4427 17.3998Z" fill="white"/>
</svg>
