<svg width="30" height="30" viewBox="0 0 30 30" fill="none" xmlns="http://www.w3.org/2000/svg">
<path d="M15.0001 -0.00500488C15.7535 -0.00500488 16.3642 0.605743 16.3642 1.35906V4.08726C16.3642 4.84063 15.7535 5.45133 15.0001 5.45133C14.2467 5.45133 13.636 4.84058 13.636 4.08726V1.35906C13.636 0.605743 14.2467 -0.00500488 15.0001 -0.00500488ZM15.0001 7.43222C10.8207 7.43222 7.43266 10.8202 7.43266 14.9997C7.43266 19.179 10.8207 22.5671 15.0001 22.5671C19.1795 22.5671 22.5675 19.179 22.5675 14.9997C22.5675 10.8202 19.1795 7.43222 15.0001 7.43222ZM6.35107 4.42154C5.81835 3.88883 4.95465 3.88883 4.42199 4.42154C3.88927 4.95426 3.88927 5.81797 4.42199 6.35068L6.37069 8.29939C6.90341 8.8321 7.76711 8.8321 8.29977 8.29939C8.83249 7.76667 8.83249 6.90296 8.29977 6.37024L6.35107 4.42154ZM-0.00488281 15C-0.00488281 14.2466 0.605865 13.6359 1.35919 13.6359H4.08738C4.84075 13.6359 5.45145 14.2466 5.45145 15C5.45145 15.7533 4.84075 16.364 4.08738 16.364H1.35919C0.605865 16.3641 -0.00488281 15.7534 -0.00488281 15ZM8.29977 23.6295C8.83249 23.0968 8.83249 22.2332 8.29977 21.7004C7.76705 21.1677 6.90335 21.1677 6.37069 21.7004L4.42199 23.6491C3.88927 24.1818 3.88927 25.0456 4.42199 25.5782C4.9547 26.1109 5.81835 26.1109 6.35107 25.5782L8.29977 23.6295ZM15.0001 24.5486C15.7535 24.5486 16.3642 25.1593 16.3642 25.9127V28.6409C16.3642 29.3942 15.7535 30.0049 15.0001 30.0049C14.2467 30.0049 13.636 29.3942 13.636 28.6409V25.9127C13.636 25.1593 14.2467 24.5486 15.0001 24.5486ZM23.6296 21.7004C23.0968 21.1677 22.2332 21.1677 21.7005 21.7004C21.1677 22.2332 21.1677 23.0968 21.7005 23.6295L23.6491 25.5782C24.1819 26.1109 25.0455 26.1109 25.5782 25.5782C26.111 25.0456 26.111 24.1818 25.5782 23.6491L23.6296 21.7004ZM24.5487 15C24.5487 14.2466 25.1594 13.6359 25.9128 13.6359H28.641C29.3944 13.6359 30.0051 14.2466 30.0051 15C30.0051 15.7533 29.3944 16.364 28.641 16.364H25.9128C25.1594 16.3641 24.5487 15.7534 24.5487 15ZM25.5783 6.35063C26.1111 5.81791 26.1111 4.95421 25.5783 4.42149C25.0456 3.88877 24.182 3.88877 23.6492 4.42149L21.7006 6.37019C21.1677 6.90291 21.1677 7.76661 21.7006 8.29933C22.2332 8.83205 23.0968 8.83205 23.6297 8.29933L25.5783 6.35063Z" fill="#191919"/>
</svg>
