<svg xmlns="http://www.w3.org/2000/svg" version="1.1" xmlns:xlink="http://www.w3.org/1999/xlink" width="512" height="512" x="0" y="0" viewBox="0 0 512 512" style="enable-background:new 0 0 512 512" xml:space="preserve"><g><path fill="#DFE7F4" d="M356.605 4.395c-5.859-5.859-15.352-5.859-21.211 0L256 83.789 176.605 4.395c-5.859-5.859-15.352-5.859-21.211 0s-5.859 15.352 0 21.211l90 90c2.93 2.93 6.768 4.395 10.605 4.395s7.676-1.465 10.605-4.395l90-90c5.861-5.86 5.861-15.352.001-21.211z" opacity="1" data-original="#dfe7f4"></path><path fill="#C7CFE1" d="M356.605 25.605c5.859-5.859 5.859-15.352 0-21.211s-15.352-5.859-21.211 0L256 83.789V120c3.838 0 7.676-1.465 10.605-4.395z" opacity="1" data-original="#c7cfe1"></path><path fill="#07485E" d="M105 512c-8.291 0-15-6.709-15-15v-30c0-8.291 6.709-15 15-15s15 6.709 15 15v30c0 8.291-6.709 15-15 15z" opacity="1" data-original="#07485e"></path><path fill="#03232E" d="M407 512c-8.291 0-15-6.709-15-15v-30c0-8.291 6.709-15 15-15s15 6.709 15 15v30c0 8.291-6.709 15-15 15z" opacity="1" data-original="#03232e"></path><path fill="#FF9F22" d="M467 90H45c-24.814 0-45 20.186-45 45v302c0 24.814 20.186 45 45 45h422c24.814 0 45-20.186 45-45V135c0-24.814-20.186-45-45-45z" opacity="1" data-original="#ff9f22"></path><path fill="#FF4A4A" d="M512 437V135c0-24.814-20.186-45-45-45H256v392h211c24.814 0 45-20.186 45-45z" opacity="1" data-original="#ff4a4a"></path><g fill="#DFE7F4"><circle cx="437" cy="195" r="15" fill="#DFE7F4" opacity="1" data-original="#dfe7f4"></circle><circle cx="437" cy="255" r="15" fill="#DFE7F4" opacity="1" data-original="#dfe7f4"></circle><path d="M437 392c-8.291 0-15-6.709-15-15v-62c0-8.291 6.709-15 15-15s15 6.709 15 15v62c0 8.291-6.709 15-15 15z" fill="#DFE7F4" opacity="1" data-original="#dfe7f4"></path></g><path fill="#0B799D" d="M377 150H75c-8.291 0-15 6.709-15 15v242c0 8.291 6.709 15 15 15h302c8.291 0 15-6.709 15-15V165c0-8.291-6.709-15-15-15z" opacity="1" data-original="#0b799d"></path><path fill="#07485E" d="M392 407V165c0-8.291-6.709-15-15-15H256v272h121c8.291 0 15-6.709 15-15z" opacity="1" data-original="#07485e"></path></g></svg>